<svg width="36" height="45" viewBox="0 0 36 45" fill="none" xmlns="http://www.w3.org/2000/svg">
<path d="M12.7058 0H15.3529V5.29412H12.7058V0Z" fill="#457AE6"/>
<path d="M17.9943 5.43505L21.7372 1.69211L23.6087 3.56358L19.8657 7.30652L17.9943 5.43505Z" fill="#457AE6"/>
<path d="M4.44495 3.56197L6.31642 1.6905L10.0594 5.43344L8.18789 7.30491L4.44495 3.56197Z" fill="#457AE6"/>
<path d="M34.4305 25.3742C33.397 24.3406 31.7216 24.3404 30.6877 25.3734L31.6229 24.4382C32.6567 23.4045 32.6567 21.7285 31.6229 20.6947C30.5894 19.6611 28.9139 19.6609 27.8801 20.694L28.8154 19.7587C29.8491 18.725 29.8491 17.049 28.8154 16.0152C27.7819 14.9816 26.1064 14.9815 25.0726 16.0144L32.5588 8.52829C33.5925 7.49461 33.5925 5.81858 32.5588 4.78482C31.525 3.75097 29.849 3.75097 28.8153 4.78482L12.0246 21.6031C12.0246 21.6031 6.53404 12.1196 1.72989 16.9238L0.794067 17.8596L3.91363 20.9792C6.84251 23.9081 6.84251 28.6569 3.91363 31.5858L2.66571 32.8336L14.8322 45L17.6399 42.1923L22.4542 40.1291C23.6015 39.6374 24.6444 38.9314 25.527 38.0486L34.4305 29.1176C35.4643 28.0839 35.4643 26.4079 34.4305 25.3742Z" fill="#457AE6"/>
</svg>
