<svg width="36" height="45" viewBox="0 0 36 45" fill="none" xmlns="http://www.w3.org/2000/svg">
<path d="M20.25 20.25V30H15.75V20.25H20.25ZM9.75 20.25V30H14.25V20.25H9.75ZM32.625 31.5H9.375C8.87772 31.5 8.40081 31.6975 8.04918 32.0492C7.69754 32.4008 7.5 32.8777 7.5 33.375C7.5 33.8723 7.69754 34.3492 8.04918 34.7008C8.40081 35.0525 8.87772 35.25 9.375 35.25H32.625C33.1223 35.25 33.5992 35.0525 33.9508 34.7008C34.3025 34.3492 34.5 33.8723 34.5 33.375C34.5 32.8777 34.3025 32.4008 33.9508 32.0492C33.5992 31.6975 33.1223 31.5 32.625 31.5ZM22.5 36.75H24V42.75C23.9983 43.3462 23.7607 43.9175 23.3391 44.3391C22.9175 44.7607 22.3462 44.9983 21.75 45H2.25C1.6538 44.9983 1.08251 44.7607 0.660931 44.3391C0.239351 43.9175 0.00173924 43.3462 0 42.75V2.25C0.00173924 1.6538 0.239351 1.08251 0.660931 0.660931C1.08251 0.239351 1.6538 0.00173924 2.25 0H21.75C22.3462 0.00173924 22.9175 0.239351 23.3391 0.660931C23.7607 1.08251 23.9983 1.6538 24 2.25V8.50712L22.5 7.55974V6H1.5V37.5H22.5V36.75ZM15 41.25C15 41.0511 14.921 40.8603 14.7803 40.7197C14.6397 40.579 14.4489 40.5 14.25 40.5H9.75C9.55109 40.5 9.36032 40.579 9.21967 40.7197C9.07902 40.8603 9 41.0511 9 41.25C9 41.4489 9.07902 41.6397 9.21967 41.7803C9.36032 41.921 9.55109 42 9.75 42H14.25C14.4489 42 14.6397 41.921 14.7803 41.7803C14.921 41.6397 15 41.4489 15 41.25ZM21.75 20.25V30H26.25V20.25H21.75ZM27.75 20.25V30H32.25V20.25H27.75ZM35.9707 18.2084C35.9255 18.3645 35.8307 18.5018 35.7007 18.5995C35.5708 18.6971 35.4126 18.75 35.25 18.75H6.75C6.58741 18.75 6.42921 18.6972 6.29923 18.5996C6.16925 18.5019 6.07453 18.3646 6.02933 18.2085C5.98412 18.0523 5.99089 17.8856 6.04862 17.7337C6.10634 17.5817 6.21189 17.4525 6.34937 17.3657L19.7981 8.87146C20.1582 8.64569 20.5746 8.52594 20.9996 8.52594C21.4247 8.52594 21.8411 8.64569 22.2012 8.87146H22.2019L35.6506 17.3657C35.7879 17.4527 35.8933 17.5818 35.9511 17.7337C36.0088 17.8857 36.0157 18.0522 35.9707 18.2084ZM22.1243 13.2279C21.7898 13.098 21.4433 13.0017 21.0899 12.9402C20.2733 12.9067 20.1587 12.0161 21.0679 12.046C21.2421 12.0315 21.416 12.078 21.5599 12.1774C21.7038 12.2768 21.8086 12.4231 21.8566 12.5912C22.0381 13.1853 22.9387 12.8706 22.7729 12.2863C22.6689 11.9776 22.4719 11.7087 22.2089 11.5166C21.9459 11.3244 21.6298 11.2185 21.3041 11.2133V10.8759C21.3461 10.5754 20.6891 10.546 20.7222 10.8656V11.2206C18.8611 11.5345 18.8433 13.8719 20.9985 14.0867C21.2224 14.1169 21.4391 14.1867 21.6384 14.2929C22.0763 14.663 21.575 15.1568 21.0646 15.093C20.8563 15.1201 20.6454 15.0693 20.4723 14.9505C20.2992 14.8316 20.176 14.6531 20.1263 14.449C20.1153 14.3794 20.0901 14.3128 20.0523 14.2534C20.0144 14.1939 19.9647 14.1429 19.9063 14.1034C19.8479 14.064 19.782 14.0369 19.7128 14.024C19.6435 14.0111 19.5723 14.0126 19.5036 14.0284C19.4349 14.0442 19.3702 14.0739 19.3134 14.1157C19.2567 14.1576 19.2092 14.2106 19.1739 14.2716C19.1385 14.3326 19.1161 14.4002 19.108 14.4702C19.0999 14.5402 19.1063 14.6112 19.1267 14.6786C19.2112 15.0384 19.4148 15.3592 19.7044 15.5888C19.994 15.8184 20.3527 15.9436 20.7223 15.9438V16.39C20.6952 16.7223 21.3406 16.719 21.3042 16.39V15.9438C22.8536 15.933 23.5397 13.9142 22.1243 13.2279Z" fill="#457AE6"/>
</svg>
