<svg width="52" height="45" viewBox="0 0 52 45" fill="none" xmlns="http://www.w3.org/2000/svg">
<path d="M37.4545 0H29.2727C28.5949 0 28.0454 0.549469 28.0454 1.22727V3.68182C28.0454 4.35962 28.5949 4.90909 29.2727 4.90909H37.4545C38.1323 4.90909 38.6818 4.35962 38.6818 3.68182V1.22727C38.6818 0.549469 38.1323 0 37.4545 0Z" fill="#457AE6"/>
<path d="M13.7272 18H5.54539C5.2199 18 4.90773 18.1293 4.67757 18.3595C4.44742 18.5896 4.31812 18.9018 4.31812 19.2273C4.31812 19.5528 4.44742 19.8649 4.67757 20.0951C4.90773 20.3252 5.2199 20.4545 5.54539 20.4545H13.7272C14.0527 20.4545 14.3649 20.3252 14.595 20.0951C14.8252 19.8649 14.9545 19.5528 14.9545 19.2273C14.9545 18.9018 14.8252 18.5896 14.595 18.3595C14.3649 18.1293 14.0527 18 13.7272 18Z" fill="#457AE6"/>
<path d="M13.3182 29.0455C13.3182 28.72 13.1889 28.4078 12.9588 28.1776C12.7286 27.9475 12.4165 27.8182 12.091 27.8182H3.90916C3.58366 27.8182 3.2715 27.9475 3.04134 28.1776C2.81119 28.4078 2.68188 28.72 2.68188 29.0455C2.68188 29.3709 2.81119 29.6831 3.04134 29.9133C3.2715 30.1434 3.58366 30.2727 3.90916 30.2727H12.091C12.4165 30.2727 12.7286 30.1434 12.9588 29.9133C13.1889 29.6831 13.3182 29.3709 13.3182 29.0455Z" fill="#457AE6"/>
<path d="M12.9091 32.7273H7.18186C6.85637 32.7273 6.54421 32.8566 6.31405 33.0867C6.08389 33.3169 5.95459 33.6291 5.95459 33.9545C5.95459 34.28 6.08389 34.5922 6.31405 34.8224C6.54421 35.0525 6.85637 35.1818 7.18186 35.1818H12.9091C13.2346 35.1818 13.5468 35.0525 13.7769 34.8224C14.0071 34.5922 14.1364 34.28 14.1364 33.9545C14.1364 33.6291 14.0071 33.3169 13.7769 33.0867C13.5468 32.8566 13.2346 32.7273 12.9091 32.7273Z" fill="#457AE6"/>
<path d="M13.3182 24.1364C13.3182 23.8109 13.1889 23.4987 12.9587 23.2685C12.7286 23.0384 12.4164 22.9091 12.0909 22.9091H1.45457C1.12907 22.9091 0.816913 23.0384 0.586755 23.2685C0.356596 23.4987 0.227295 23.8109 0.227295 24.1364C0.227295 24.4619 0.356596 24.774 0.586755 25.0042C0.816913 25.2343 1.12907 25.3636 1.45457 25.3636H12.0909C12.4164 25.3636 12.7286 25.2343 12.9587 25.0042C13.1889 24.774 13.3182 24.4619 13.3182 24.1364Z" fill="#457AE6"/>
<path d="M33.3637 26.5909V12.6818C25.6941 12.6818 19.4546 18.9214 19.4546 26.5909C19.4546 34.2604 25.6941 40.5 33.3637 40.5C41.0332 40.5 47.2728 34.2604 47.2728 26.5909H33.3637Z" fill="#457AE6"/>
<path d="M46.8246 14.0475L48.1406 12.7314C48.256 12.6178 48.3479 12.4824 48.4108 12.3331C48.4737 12.1838 48.5064 12.0236 48.5071 11.8616C48.5078 11.6996 48.4763 11.539 48.4146 11.3892C48.353 11.2394 48.2622 11.1033 48.1477 10.9888C48.0331 10.8742 47.897 10.7835 47.7472 10.7218C47.5974 10.6601 47.4369 10.6286 47.2748 10.6293C47.1128 10.63 46.9526 10.6627 46.8033 10.7256C46.654 10.7885 46.5186 10.8804 46.405 10.9958L45.0354 12.3654C42.3977 10.1925 39.2052 8.80017 35.8182 8.34545V6.13636H30.9091V8.34545C27.5222 8.79999 24.3297 10.1921 21.692 12.3648L20.3224 10.9952C20.2088 10.8797 20.0734 10.7879 19.9241 10.725C19.7748 10.6621 19.6145 10.6293 19.4525 10.6287C19.2905 10.628 19.13 10.6595 18.9802 10.7211C18.8304 10.7828 18.6943 10.8736 18.5797 10.9881C18.4652 11.1027 18.3744 11.2388 18.3127 11.3886C18.251 11.5384 18.2196 11.6989 18.2203 11.8609C18.2209 12.023 18.2537 12.1832 18.3166 12.3325C18.3795 12.4818 18.4713 12.6172 18.5868 12.7308L19.9028 14.0468C16.7203 17.4481 14.9512 21.9329 14.9546 26.5909C14.9546 36.7417 23.2129 45 33.3637 45C43.5145 45 51.7728 36.7417 51.7728 26.5909C51.776 21.9331 50.007 17.4486 46.8246 14.0475ZM33.3637 41.7273C30.37 41.7273 27.4435 40.8395 24.9544 39.1763C22.4652 37.5131 20.5251 35.1491 19.3795 32.3833C18.2339 29.6175 17.9341 26.5741 18.5182 23.6379C19.1022 20.7018 20.5438 18.0047 22.6607 15.8879C24.7775 13.771 27.4746 12.3294 30.4107 11.7454C33.3469 11.1613 36.3903 11.4611 39.1561 12.6067C41.9219 13.7524 44.2859 15.6924 45.9491 18.1816C47.6123 20.6708 48.5 23.5972 48.5 26.5909C48.5 28.5786 48.1085 30.5469 47.3479 32.3833C46.5872 34.2198 45.4723 35.8884 44.0667 37.2939C42.6612 38.6995 40.9925 39.8144 39.1561 40.5751C37.3197 41.3358 35.3514 41.7273 33.3637 41.7273Z" fill="#457AE6"/>
</svg>
